<svg xmlns="http://www.w3.org/2000/svg" width="58" height="64" viewBox="0 0 57.999998 63.999998"><g transform="translate(0 -988.362)"><path fill="#00f" fill-rule="evenodd" stroke="#000" stroke-width=".124" d="M-.218 999.398h58.18v53.327H-.218z"/><path fill="#4a0" fill-rule="evenodd" stroke="#000" stroke-width=".114" d="M12.985 1029.602h31.84v18.195h-31.84z"/><circle cx="20.946" cy="-1039.024" r="4.874" fill="#666" transform="scale(1 -1)"/><circle cx="36.216" cy="-1039.024" r="4.874" fill="#666" transform="scale(1 -1)"/><text x="38.543" y="1010.815" fill="#fff" style="line-height:125%" font-size="4.549" font-family="sans-serif" letter-spacing="0" word-spacing="0"><tspan x="38.543" y="1010.815" font-size="3.127">GND</tspan></text><path d="M8.377 1002.53H47.69v5.523H8.378z"/><path fill="#4d4d4d" d="M10.196 989.047h1.95v16.245h-1.95zm6.86 0h1.95v16.245h-1.95zm13.714 0h1.95v16.245h-1.95zm6.86 0h1.948v16.245h-1.95z"/><text x="23.614" y="1010.821" fill="#fff" style="line-height:125%" font-size="4.549" font-family="sans-serif" letter-spacing="0" word-spacing="0"><tspan x="23.614" y="1010.821" font-size="3.127">SO</tspan></text><text x="15.67" y="1010.815" fill="#fff" style="line-height:125%" font-size="4.549" font-family="sans-serif" letter-spacing="0" word-spacing="0"><tspan x="15.67" y="1010.815" font-size="3.127">CS</tspan></text><text x="4.4" y="1010.815" fill="#fff" style="line-height:125%" font-size="4.549" font-family="sans-serif" letter-spacing="0" word-spacing="0"><tspan x="4.4" y="1010.815" font-size="3.127">SCK</tspan></text><path fill="#4d4d4d" d="M23.913 989.047h1.95v16.245h-1.95z"/><text x="28.814" y="1010.815" fill="#fff" style="line-height:125%" font-size="4.549" font-family="sans-serif" letter-spacing="0" word-spacing="0"><tspan x="28.814" y="1010.815" font-size="3.127">VCC</tspan></text></g></svg>